<?xml version="1.0" encoding="iso-8859-1"?>
<!-- Generator: Adobe Illustrator 19.0.0, SVG Export Plug-In . SVG Version: 6.00 Build 0)  -->
<svg version="1.1" id="Capa_1" xmlns="http://www.w3.org/2000/svg" xmlns:xlink="http://www.w3.org/1999/xlink" x="0px" y="0px"
	 viewBox="0 0 511.999 511.999" style="enable-background:new 0 0 511.999 511.999;" xml:space="preserve">
<path style="fill:#ABFFDB;" d="M251.762,79.646h162.846c30.69,0,60.849,8.009,87.495,23.236l0,0
	c4.207,2.404,2.501,8.829-2.345,8.829H166.61c-4.846,0-6.552-6.424-2.344-8.829l0,0C190.913,87.656,221.072,79.646,251.762,79.646z"
	/>
<path style="fill:#FFC850;" d="M482.856,240.307l-28.777-80.573c-3.418-9.571-12.484-15.96-22.647-15.96H80.559
	c-10.163,0-19.229,6.389-22.647,15.96l-28.777,80.573c-3.709,10.384-5.604,21.328-5.604,32.354v111.594h464.928V272.661
	C488.46,261.635,486.564,250.691,482.856,240.307z"/>
<path style="fill:#ABFFDB;" d="M29.136,240.307c-2.736,7.661-4.468,15.629-5.198,23.707h464.116
	c-0.729-8.079-2.462-16.047-5.198-23.707l-23.025-64.469H52.161L29.136,240.307z"/>
<g>
	<path style="fill:#FFFFFF;" d="M23.532,272.661v111.594h464.928V272.661c0-2.892-0.147-5.775-0.406-8.646H23.938
		C23.679,266.886,23.532,269.769,23.532,272.661z"/>
	<path style="fill:#FFFFFF;" d="M304.092,264.015H207.9c-8.854,0-16.032-7.178-16.032-16.032v-24.048
		c0-8.854,7.178-16.032,16.032-16.032h96.192c8.854,0,16.032,7.178,16.032,16.032v24.048
		C320.124,256.837,312.946,264.015,304.092,264.015z"/>
	<path style="fill:#FFFFFF;" d="M352.189,223.934v24.048c0,8.854,7.178,16.032,16.032,16.032h65.265
		c10.87,0,18.65-10.606,15.31-20.951c-0.298-0.923-0.61-1.842-0.937-2.757l-7.773-21.766c-2.279-6.381-8.323-10.64-15.098-10.64
		H368.22C359.365,207.903,352.189,215.081,352.189,223.934z"/>
	<path style="fill:#FFFFFF;" d="M159.805,223.934v24.048c0,8.854-7.178,16.032-16.032,16.032H78.507
		c-10.87,0-18.651-10.606-15.31-20.951c0.298-0.923,0.61-1.842,0.937-2.757l7.773-21.766c2.279-6.381,8.323-10.64,15.098-10.64
		h56.767C152.627,207.903,159.805,215.081,159.805,223.934z"/>
</g>
<path style="fill:#FF8031;" d="M480.444,296.078c-8.854,0-16.032,7.178-16.032,16.032c0,8.854,7.178,16.032,16.032,16.032h8.016
	v-32.064L480.444,296.078L480.444,296.078z"/>
<g>
	<path style="fill:#FFC850;" d="M488.054,264.015H63.612v8.016c0,8.854,7.178,16.032,16.032,16.032H488.46v-15.402
		C488.46,269.769,488.313,266.886,488.054,264.015z"/>
	<path style="fill:#FFC850;" d="M441.394,352.189c-4.137,0-8.217-1.497-11.09-4.474c-11.642-12.062-27.957-19.574-46.052-19.574
		c-18.096,0-34.41,7.512-46.052,19.574c-2.873,2.977-6.953,4.474-11.09,4.474H184.882c-4.137,0-8.217-1.497-11.09-4.474
		c-11.642-12.062-27.957-19.574-46.052-19.574s-34.41,7.512-46.052,19.574c-2.873,2.977-6.953,4.474-11.09,4.474l-47.065,0.001
		v32.064H488.46V352.19L441.394,352.189z"/>
</g>
<circle style="fill:#C3C8D1;" cx="127.738" cy="392.273" r="40.079"/>
<g>
	<path style="fill:#E4EAF8;" d="M47.58,400.287H15.516c-4.427,0-8.016-3.589-8.016-8.016v-16.032c0-4.427,3.589-8.016,8.016-8.016
		h32.063c4.427,0,8.016,3.589,8.016,8.016v16.032C55.596,396.698,52.007,400.287,47.58,400.287z"/>
	<path style="fill:#E4EAF8;" d="M496.476,400.287h-32.064c-4.427,0-8.016-3.589-8.016-8.016v-16.032
		c0-4.427,3.589-8.016,8.016-8.016h32.064c4.427,0,8.016,3.589,8.016,8.016v16.032C504.492,396.698,500.903,400.287,496.476,400.287
		z"/>
</g>
<circle style="fill:#C3C8D1;" cx="384.254" cy="392.273" r="40.079"/>
<path style="fill:#474D54;" d="M496.476,360.723h-0.516v-88.063c0-11.918-2.032-23.652-6.041-34.875l-28.777-80.573
	c-4.472-12.523-16.412-20.938-29.71-20.938H415.8v-17.064h83.959c5.624,0,10.372-3.652,11.816-9.087
	c1.443-5.436-0.868-10.963-5.75-13.753c-27.733-15.848-59.275-24.224-91.216-24.224H251.762c-31.94,0-63.483,8.377-91.217,24.224
	c-4.883,2.79-7.194,8.317-5.751,13.753c1.444,5.436,6.192,9.087,11.816,9.087h81.886v17.064H80.559
	c-13.298,0-25.238,8.414-29.71,20.938l-28.777,80.573c-4.009,11.224-6.041,22.958-6.041,34.875v88.063h-0.516
	C6.96,360.723,0,367.683,0,376.239v16.032c0,8.556,6.96,15.516,15.516,15.516h32.063c8.556,0,15.516-6.96,15.516-15.516v-0.516
	h17.078c-0.002,0.173-0.013,0.343-0.013,0.516c0,26.236,21.345,47.58,47.58,47.58s47.58-21.345,47.58-47.58
	c0-0.173-0.011-0.344-0.013-0.516h161.377c-0.002,0.173-0.013,0.343-0.013,0.516c0,26.236,21.345,47.58,47.58,47.58
	c26.236,0,47.58-21.345,47.58-47.58c0-0.173-0.011-0.344-0.013-0.516h17.077v0.516c0,8.556,6.961,15.516,15.516,15.516h32.064
	c8.556,0,15.516-6.96,15.516-15.516v-16.032C511.992,367.683,505.032,360.723,496.476,360.723z M415.799,87.164
	c25.224,0.179,50.148,6.03,72.774,17.047h-72.774V87.164z M263.496,87.147H400.8v17.064H263.496V87.147z M263.496,119.21H400.8
	v17.064H263.496V119.21z M177.796,104.21c22.006-10.715,46.185-16.541,70.701-17.018v17.018H177.796z M48.096,392.271
	c0,0.285-0.231,0.516-0.516,0.516H15.516c-0.285,0-0.516-0.231-0.516-0.516v-16.032c0-0.285,0.231-0.516,0.516-0.516h32.063
	c0.285,0,0.516,0.231,0.516,0.516v16.032H48.096z M127.74,424.85c-17.965,0-32.58-14.616-32.58-32.58
	c0-17.965,14.616-32.581,32.58-32.581s32.58,14.616,32.58,32.581C160.32,410.236,145.705,424.85,127.74,424.85z M384.252,424.85
	c-17.965,0-32.58-14.616-32.58-32.58c0-17.965,14.616-32.581,32.58-32.581c17.965,0,32.581,14.616,32.581,32.581
	C416.832,410.236,402.217,424.85,384.252,424.85z M480.96,360.723h-16.548c-8.556,0-15.516,6.96-15.516,15.516v0.516h-19.676
	c-6.45-18.638-24.165-32.063-44.968-32.063c-20.804,0-38.519,13.426-44.969,32.063H172.708
	c-6.45-18.638-24.165-32.063-44.968-32.063c-20.803,0-38.518,13.426-44.968,32.063H63.096v-0.516c0-8.556-6.96-15.516-15.516-15.516
	H31.032v-88.063c0-0.383,0.02-0.764,0.024-1.146l1.47-15c0.859-4.637,2.074-9.21,3.672-13.685l21.248-59.491l5.357-15l2.172-6.082
	c2.346-6.569,8.608-10.982,15.584-10.982h350.875c6.976,0,13.238,4.414,15.584,10.982l2.172,6.082l5.357,15l21.248,59.491
	c1.598,4.475,2.813,9.048,3.672,13.685l1.47,15c0.005,0.382,0.024,0.763,0.024,1.146v15.919v72.144H480.96z M496.992,392.271
	c0,0.285-0.231,0.516-0.516,0.516h-32.064c-0.285,0-0.516-0.231-0.516-0.516v-16.032c0-0.285,0.232-0.516,0.516-0.516h32.064
	c0.285,0,0.516,0.231,0.516,0.516V392.271z"/>
<g>
	<path style="fill:#FFFFFF;" d="M127.82,384.771h-0.081c-4.142,0-7.459,3.358-7.459,7.5c0,4.142,3.398,7.5,7.54,7.5
		c4.142,0,7.5-3.358,7.5-7.5C135.32,388.129,131.962,384.771,127.82,384.771z"/>
	<path style="fill:#FFFFFF;" d="M384.332,384.771h-0.08c-4.142,0-7.46,3.358-7.46,7.5c0,4.142,3.398,7.5,7.54,7.5s7.5-3.358,7.5-7.5
		C391.832,388.129,388.474,384.771,384.332,384.771z"/>
</g>
<path style="fill:#979BA0;" d="M376.236,296.595h-16.032c-4.142,0-7.5,3.358-7.5,7.5s3.358,7.5,7.5,7.5h16.032
	c4.142,0,7.5-3.358,7.5-7.5S380.378,296.595,376.236,296.595z"/>
<g>
</g>
<g>
</g>
<g>
</g>
<g>
</g>
<g>
</g>
<g>
</g>
<g>
</g>
<g>
</g>
<g>
</g>
<g>
</g>
<g>
</g>
<g>
</g>
<g>
</g>
<g>
</g>
<g>
</g>
</svg>
